<svg xmlns="http://www.w3.org/2000/svg" viewBox="0 0 256 256" role="img" aria-label="Sigilo de Editorial Escatonomicón">
  <defs>
    <radialGradient id="g" cx="50%" cy="45%" r="60%">
      <stop offset="0%" stop-color="#f0e7d7"/>
      <stop offset="55%" stop-color="#c79b52"/>
      <stop offset="100%" stop-color="#781f22"/>
    </radialGradient>
  </defs>
  <rect width="256" height="256" fill="none"/>
  <circle cx="128" cy="128" r="98" fill="none" stroke="url(#g)" stroke-width="4"/>
  <circle cx="128" cy="128" r="59" fill="none" stroke="#c79b52" stroke-width="2.5" opacity=".88"/>
  <path d="M128 24 L128 232 M24 128 L232 128" stroke="#f0e7d7" stroke-width="3" opacity=".72"/>
  <path d="M62 62 L194 194 M194 62 L62 194" stroke="#c79b52" stroke-width="2" opacity=".66"/>
  <path d="M128 42 C160 86 160 170 128 214 C96 170 96 86 128 42Z" fill="none" stroke="#f0e7d7" stroke-width="3"/>
  <path d="M42 128 C86 96 170 96 214 128 C170 160 86 160 42 128Z" fill="none" stroke="#f0e7d7" stroke-width="3"/>
  <path d="M128 75 L154 128 L128 181 L102 128Z" fill="none" stroke="#781f22" stroke-width="6"/>
  <circle cx="128" cy="128" r="10" fill="#c79b52"/>
  <circle cx="128" cy="42" r="5" fill="#f0e7d7"/>
  <circle cx="128" cy="214" r="5" fill="#f0e7d7"/>
  <circle cx="42" cy="128" r="5" fill="#f0e7d7"/>
  <circle cx="214" cy="128" r="5" fill="#f0e7d7"/>
</svg>
